# xmcd
#
# Track frame offsets:
#	150
#	17285
#	36423
#	52518
#	71413
#	89125
#	104415
#	122493
#	143485
#	163598
#	182315
#	199515
#	215385
#	230568
#
# Disc length: 3304 seconds
#
# Revision: 0
# Processed by: cddbd v1.5.2PL0 Copyright (c) Steve Scherf et al.
# Submitted via: EasyCDDAExtractor 15.2.0.1
#
DISCID=ae0ce60e
DTITLE=Rick and Renner - Waner 30 Anos
DYEAR=2006
DGENRE=Sertanejo
TTITLE0=Nos bares da cidade
TTITLE1=Eu mereço
TTITLE2=Muleca
TTITLE3=Cara-de-pau
TTITLE4=Fim de semana
TTITLE5=Ela é demais
TTITLE6=Seguir em frente
TTITLE7=A força do amor
TTITLE8=O amor e eu
TTITLE9=Homem carente (ao vivo)
TTITLE10=Paixão de peão
TTITLE11=Fica, amor, tá cedo
TTITLE12=Na pontinha do pé - part. esp. Grupo Molejo
TTITLE13=Nóis tropica, mais não cai
EXTD=
EXTT0=
EXTT1=
EXTT2=
EXTT3=
EXTT4=
EXTT5=
EXTT6=
EXTT7=
EXTT8=
EXTT9=
EXTT10=
EXTT11=
EXTT12=
EXTT13=
PLAYORDER=
